<svg width="50" height="50" viewBox="0 0 50 50" fill="none" xmlns="http://www.w3.org/2000/svg">
<path d="M25 14.5835C27.041 14.5834 29.037 15.1828 30.7402 16.3075C32.4435 17.4321 33.7788 19.0322 34.5803 20.9092C35.3819 22.7863 35.6144 24.8574 35.2489 26.8654C34.8834 28.8734 33.9361 30.7298 32.5246 32.204C31.1131 33.6783 29.2996 34.7054 27.3094 35.1577C25.3192 35.6101 23.2399 35.4679 21.3298 34.7486C19.4198 34.0294 17.7631 32.7649 16.5655 31.1122C15.368 29.4594 14.6823 27.4913 14.5937 25.4522L14.5833 25.0002L14.5937 24.5481C14.7102 21.8663 15.8575 19.333 17.7963 17.4765C19.7351 15.62 22.3157 14.5837 25 14.5835Z" fill="#FF8717"/>
</svg>
