<svg width="30" height="30" viewBox="0 0 35 35" fill="none" xmlns="http://www.w3.org/2000/svg">
<path d="M17.5 33.6515L16.674 34.6045C16.7824 34.7299 16.9111 34.8294 17.0529 34.8972C17.1946 34.9651 17.3465 35 17.5 35C17.6535 35 17.8054 34.9651 17.9471 34.8972C18.0889 34.8294 18.2176 34.7299 18.326 34.6045L17.5 33.6515ZM17.5 6.73031L16.674 7.68332C16.7824 7.80867 16.9111 7.90813 17.0529 7.97599C17.1946 8.04384 17.3465 8.07877 17.5 8.07877C17.6535 8.07877 17.8054 8.04384 17.9471 7.97599C18.0889 7.90813 18.2176 7.80867 18.326 7.68332L17.5 6.73031ZM18.326 32.6985L4.40767 16.6427L2.758 18.546L16.674 34.6045L18.326 32.6985ZM30.5923 16.6427L16.674 32.6985L18.326 34.6045L32.242 18.546L30.5923 16.6427ZM14.4247 5.08542L16.674 7.68332L18.326 5.7773L16.0743 3.18209L14.4247 5.08542ZM18.326 7.68332L20.5753 5.08542L18.9257 3.18209L16.674 5.7773L18.326 7.68332ZM25.5827 0C23.086 0 20.692 1.14415 18.9257 3.18209L20.5753 5.08542C21.9036 3.55361 23.7046 2.69281 25.5827 2.69212V0ZM32.6667 10.8654C32.6667 13.0326 31.92 15.1109 30.59 16.6427L32.242 18.546C34.0075 16.5089 34.9995 13.7462 35 10.8654H32.6667ZM35 10.8654C35 7.98372 34.0078 5.22006 32.2417 3.1824C30.4756 1.14474 28.0803 0 25.5827 0V2.69212C27.4615 2.69212 29.2633 3.55323 30.5918 5.08602C31.9203 6.61881 32.6667 8.69772 32.6667 10.8654H35ZM9.41733 2.69212C11.2957 2.69212 13.097 3.5536 14.4247 5.08811L16.0743 3.18209C14.3087 1.14513 11.9142 0.00054676 9.41733 0V2.69212ZM2.33333 10.8654C2.33333 8.69772 3.07968 6.61881 4.40819 5.08602C5.7367 3.55323 7.53854 2.69212 9.41733 2.69212V0C6.9197 0 4.52437 1.14474 2.75827 3.1824C0.99218 5.22006 0 7.98372 0 10.8654H2.33333ZM4.40767 16.6427C3.74964 15.8843 3.22989 14.9837 2.87358 13.9924C2.51726 13.0011 2.33368 11.9386 2.33333 10.8654H0C0 13.746 0.991667 16.5081 2.758 18.546L4.40767 16.6427Z" fill="#BF9553"/>
</svg>