<svg width="166" height="153" viewBox="0 0 166 153" fill="none" xmlns="http://www.w3.org/2000/svg">
<g clip-path="url(#clip0_452_296)">
<path d="M108.038 71.5271C107.176 70.7212 106.002 70.2639 104.774 70.256C103.546 70.248 102.365 70.6899 101.491 71.4846C100.616 72.2793 100.12 73.3615 100.111 74.4933C100.103 75.6251 100.582 76.7137 101.444 77.5196L118.598 93.4996H36.105C34.8821 93.4996 33.7092 93.9474 32.8445 94.7444C31.9797 95.5414 31.4939 96.6224 31.4939 97.7496C31.4939 98.8768 31.9797 99.9578 32.8445 100.755C33.7092 101.552 34.8821 102 36.105 102H118.598L101.444 117.725C101.018 118.121 100.68 118.591 100.45 119.107C100.22 119.624 100.103 120.177 100.105 120.736C100.107 121.294 100.228 121.847 100.462 122.362C100.696 122.877 101.038 123.345 101.468 123.738C101.897 124.132 102.407 124.443 102.968 124.655C103.528 124.867 104.129 124.975 104.735 124.973C105.341 124.971 105.94 124.859 106.499 124.644C107.058 124.428 107.565 124.113 107.992 123.717L136.166 97.7496L108.038 71.5271Z" fill="#BF9553"/>
<path d="M61.0511 78.4121C61.967 78.417 62.8637 78.1704 63.6269 77.7037C64.3902 77.2371 64.9853 76.5715 65.3365 75.7919C65.6878 75.0122 65.7791 74.1539 65.599 73.3262C65.4188 72.4985 64.9753 71.739 64.325 71.1446L47.2178 55.2496H129.664C130.887 55.2496 132.06 54.8018 132.925 54.0048C133.79 53.2078 134.276 52.1267 134.276 50.9996C134.276 49.8724 133.79 48.7914 132.925 47.9944C132.06 47.1973 130.887 46.7496 129.664 46.7496H47.2178L64.325 30.8971C64.7519 30.5008 65.09 30.0309 65.3198 29.5143C65.5497 28.9976 65.6669 28.4442 65.6648 27.8858C65.6626 27.3274 65.5412 26.7748 65.3074 26.2596C65.0735 25.7445 64.7319 25.2768 64.3019 24.8833C63.872 24.4899 63.3622 24.1783 62.8016 23.9664C62.2411 23.7545 61.6407 23.6465 61.0348 23.6485C59.8112 23.6524 58.6394 24.1043 57.7772 24.9046L29.6033 50.9996L57.7772 77.0946C58.2004 77.5038 58.708 77.8312 59.2701 78.0574C59.8323 78.2836 60.4378 78.4042 61.0511 78.4121Z" fill="#BF9553"/>
</g>
<defs>
<clipPath id="clip0_452_296">
<rect width="166" height="153" fill="white"/>
</clipPath>
</defs>
</svg>