<svg width="30" height="30" viewBox="0 0 35 35" fill="currentColor" xmlns="http://www.w3.org/2000/svg">
<path d="M2.69231 10.9375V32.8125C2.69231 34.0156 3.90385 35 5.38462 35H29.6154C31.0962 35 32.3077 34.0156 32.3077 32.8125V10.9375H2.69231ZM10.7692 30.625H8.07692V15.3125H10.7692V30.625ZM16.1538 30.625H13.4615V15.3125H16.1538V30.625ZM21.5385 30.625H18.8462V15.3125H21.5385V30.625ZM26.9231 30.625H24.2308V15.3125H26.9231V30.625ZM32.9808 4.375H24.2308V1.64062C24.2286 1.20604 24.0152 0.78974 23.637 0.482437C23.2588 0.175134 22.7464 0.00172801 22.2115 0L12.7885 0C12.2536 0.00172801 11.7412 0.175134 11.363 0.482437C10.9848 0.78974 10.7714 1.20604 10.7692 1.64062V4.375H2.01923C1.48413 4.37615 0.97136 4.54938 0.592989 4.8568C0.214617 5.16423 0.00142125 5.58086 0 6.01562V8.75H35V6.01562C34.9986 5.58086 34.7854 5.16423 34.407 4.8568C34.0286 4.54938 33.5159 4.37615 32.9808 4.375ZM21.5385 4.375H13.4615V2.21594H21.5385V4.375Z" fill="#BF9553"/>
</svg>